<svg xmlns="http://www.w3.org/2000/svg" viewBox="0 0 83.98 96.65"><defs><style>.a{font-size:24px;font-family:Open Sans;}.a,.b{fill:#fff;}.c{fill:#fee569;}.d{fill:#faa965;}.e{fill:#f1646a;}.f{fill:#8ccfba;}.g{fill:none;stroke:#fff;stroke-miterlimit:10;}.h{fill:#7dd2ef;}</style></defs><title>logo palette</title><text class="a" transform="translate(0 90.15)">Palette </text><path class="b" d="M625.19,62.65h-5.57s-0.1.64-.36,1.71c-1,4.22-4.55,15.13-14.15,20.42a32.15,32.15,0,0,1-18,4.14,28.2,28.2,0,0,1-11.39-3.16s17,2,23.94-6.72,8-16.4,8-16.4h-6.89l12.79-11.15Z" transform="translate(-573.88 -51.51)"/><polygon class="c" points="76.07 37.22 64.92 37.22 64.92 67.31 58.09 67.31 58.09 19.24 76.07 37.22"/><path class="d" d="M629.76,68.54v50.27h-9.82V68.54h0c0.15-1.89.5-3.5,0.57-4,0-.1,0-0.16,0-0.16h5.11Z" transform="translate(-573.88 -51.51)"/><path class="e" d="M605,86.71v32.1h-8.48v-29a30.22,30.22,0,0,0,8.48-3.1h0Z" transform="translate(-573.88 -51.51)"/><path class="f" d="M593.78,90.26v28.55h-8.85V93.24h-9.26V87.91A37.94,37.94,0,0,0,587,90.4,36.07,36.07,0,0,0,593.78,90.26Z" transform="translate(-573.88 -51.51)"/><path class="g" d="M638.8,118.81" transform="translate(-573.88 -51.51)"/><path class="g" d="M584.94,118.81" transform="translate(-573.88 -51.51)"/><path class="h" d="M615.94,118.57V104.63h-6.81v13.93h6.81Zm1.71-36.22v36.47H607.44V94.25a29.55,29.55,0,0,0,6.3-5.78A32.4,32.4,0,0,0,617.65,82.34Z" transform="translate(-573.88 -51.51)"/></svg>